<?xml version="1.0" encoding="utf-8"?>
<!-- Generator: Adobe Illustrator 21.0.0, SVG Export Plug-In . SVG Version: 6.00 Build 0)  -->
<svg version="1.1" id="logo_1_" xmlns="http://www.w3.org/2000/svg" xmlns:xlink="http://www.w3.org/1999/xlink" x="0px" y="0px"
	 viewBox="0 0 400 300" style="enable-background:new 0 0 400 300;" xml:space="preserve">
<style type="text/css">
	.st0{fill:#131A3C;}
</style>
<path id="logo" class="st0" d="M15.3,89.2v121.3h38.1v-43.8h26.8l10.2-26.8h-37v-24.5h45l9.7-26.2L15.3,89.2 M120.2,89.2v121.3h38.1
	V89.2L120.2,89.2 M306.7,170.9l14.2-50.1l15.4,50.7h-29.6V170.9z M341.5,89.5h-39.3l-43.8,121.3h36.4l4.6-16.5H342l5.1,16.5h37.6
	L341.5,89.5 M184.2,89.2v121.3h38.1v-43.8h26.8l10.2-26.8h-37v-24.5h45l9.7-26.2L184.2,89.2"/>
</svg>
